<svg width="32" height="32" viewBox="0 0 32 32" fill="none" xmlns="http://www.w3.org/2000/svg">
<path fill-rule="evenodd" clip-rule="evenodd" d="M4 8C4 6.93913 4.42143 5.92172 5.17157 5.17157C5.92172 4.42143 6.93913 4 8 4H24C25.0609 4 26.0783 4.42143 26.8284 5.17157C27.5786 5.92172 28 6.93913 28 8V24C28 25.0609 27.5786 26.0783 26.8284 26.8284C26.0783 27.5786 25.0609 28 24 28H8C6.93913 28 5.92172 27.5786 5.17157 26.8284C4.42143 26.0783 4 25.0609 4 24V8ZM25 19.414C24.9999 19.1493 24.8949 18.8954 24.708 18.708L22.708 16.708C22.6151 16.6149 22.5048 16.541 22.3833 16.4906C22.2618 16.4402 22.1315 16.4142 22 16.4142C21.8685 16.4142 21.7382 16.4402 21.6167 16.4906C21.4952 16.541 21.3849 16.6149 21.292 16.708L18.708 19.292C18.6151 19.3851 18.5048 19.459 18.3833 19.5094C18.2618 19.5598 18.1315 19.5858 18 19.5858C17.8685 19.5858 17.7382 19.5598 17.6167 19.5094C17.4952 19.459 17.3849 19.3851 17.292 19.292L12.708 14.708C12.6151 14.6149 12.5048 14.541 12.3833 14.4906C12.2618 14.4402 12.1315 14.4142 12 14.4142C11.8685 14.4142 11.7382 14.4402 11.6167 14.4906C11.4952 14.541 11.3849 14.6149 11.292 14.708L7.292 18.708C7.10506 18.8954 7.00006 19.1493 7 19.414V24C7 24.2652 7.10536 24.5196 7.29289 24.7071C7.48043 24.8946 7.73478 25 8 25H24C24.2652 25 24.5196 24.8946 24.7071 24.7071C24.8946 24.5196 25 24.2652 25 24V19.414ZM24 10C24 10.5304 23.7893 11.0391 23.4142 11.4142C23.0391 11.7893 22.5304 12 22 12C21.4696 12 20.9609 11.7893 20.5858 11.4142C20.2107 11.0391 20 10.5304 20 10C20 9.46957 20.2107 8.96086 20.5858 8.58579C20.9609 8.21071 21.4696 8 22 8C22.5304 8 23.0391 8.21071 23.4142 8.58579C23.7893 8.96086 24 9.46957 24 10Z" fill="#111111"/>
</svg>
