<svg width="32" height="32" viewBox="0 0 32 32" fill="none" xmlns="http://www.w3.org/2000/svg">
<g filter="url(#filter0_iii_51_5)">
<path d="M15.821 11.106C15.651 11.768 15.072 12.262 14.388 12.604C12.449 13.274 10.918 13.92 9.65001 14.546C8.52801 15.101 8.54001 16.854 9.66501 17.401C10.98 18.04 12.631 18.653 14.465 19.381C14.958 19.576 15.655 20.128 15.828 20.807C16.3876 22.9632 17.0765 25.0837 17.891 27.157C18.512 28.744 20.049 28.742 20.674 27.157C21.484 25.098 22.101 22.875 22.796 20.76C22.8805 20.4391 23.0428 20.1439 23.2685 19.9006C23.4942 19.6573 23.7763 19.4734 24.09 19.365C25.6862 18.7931 27.2609 18.163 28.811 17.476C30.071 16.921 30.097 15.12 28.853 14.53C27.2946 13.7869 25.7026 13.1165 24.082 12.521C23.7656 12.408 23.4798 12.2228 23.2474 11.9802C23.015 11.7375 22.8423 11.444 22.743 11.123C21.989 8.81303 21.511 6.85303 20.709 4.81903C20.084 3.23303 18.445 3.28203 17.819 4.86703C17.021 6.89503 16.464 8.91203 15.821 11.106Z" fill="url(#paint0_linear_51_5)"/>
</g>
<path d="M15.821 11.106C15.651 11.768 15.072 12.262 14.388 12.604C12.449 13.274 10.918 13.92 9.65001 14.546C8.52801 15.101 8.54001 16.854 9.66501 17.401C10.98 18.04 12.631 18.653 14.465 19.381C14.958 19.576 15.655 20.128 15.828 20.807C16.3876 22.9632 17.0765 25.0837 17.891 27.157C18.512 28.744 20.049 28.742 20.674 27.157C21.484 25.098 22.101 22.875 22.796 20.76C22.8805 20.4391 23.0428 20.1439 23.2685 19.9006C23.4942 19.6573 23.7763 19.4734 24.09 19.365C25.6862 18.7931 27.2609 18.163 28.811 17.476C30.071 16.921 30.097 15.12 28.853 14.53C27.2946 13.7869 25.7026 13.1165 24.082 12.521C23.7656 12.408 23.4798 12.2228 23.2474 11.9802C23.015 11.7375 22.8423 11.444 22.743 11.123C21.989 8.81303 21.511 6.85303 20.709 4.81903C20.084 3.23303 18.445 3.28203 17.819 4.86703C17.021 6.89503 16.464 8.91203 15.821 11.106Z" fill="url(#paint1_linear_51_5)"/>
<g filter="url(#filter1_ii_51_5)">
<path d="M7.768 5.81601C7.713 6.02901 7.527 6.18801 7.307 6.29801C6.683 6.51401 6.19 6.72201 5.782 6.92401C5.421 7.10201 5.424 7.66601 5.787 7.84201C6.21 8.04801 6.741 8.24501 7.331 8.47901C7.491 8.54201 7.714 8.72001 7.771 8.93901C7.942 9.61201 8.176 10.324 8.434 10.982C8.634 11.493 9.129 11.492 9.33 10.982C9.59 10.32 9.79 9.60401 10.013 8.92301C10.0402 8.81966 10.0925 8.72461 10.1653 8.64629C10.238 8.56797 10.3289 8.5088 10.43 8.47401C10.9439 8.29026 11.4509 8.08779 11.95 7.86701C12.0411 7.82631 12.1187 7.76041 12.1735 7.67707C12.2284 7.59373 12.2583 7.49643 12.2596 7.39667C12.261 7.2969 12.2338 7.19882 12.1812 7.11401C12.1287 7.0292 12.0529 6.96119 11.963 6.91801C11.535 6.71601 11.003 6.48101 10.427 6.27201C10.3251 6.23565 10.2331 6.17605 10.1583 6.09794C10.0835 6.01983 10.0279 5.92535 9.996 5.82201C9.753 5.07801 9.599 4.44801 9.341 3.79201C9.141 3.28201 8.612 3.29801 8.411 3.80801C8.154 4.46101 7.975 5.11001 7.768 5.81601Z" fill="url(#paint2_linear_51_5)"/>
</g>
<path d="M7.768 5.81601C7.713 6.02901 7.527 6.18801 7.307 6.29801C6.683 6.51401 6.19 6.72201 5.782 6.92401C5.421 7.10201 5.424 7.66601 5.787 7.84201C6.21 8.04801 6.741 8.24501 7.331 8.47901C7.491 8.54201 7.714 8.72001 7.771 8.93901C7.942 9.61201 8.176 10.324 8.434 10.982C8.634 11.493 9.129 11.492 9.33 10.982C9.59 10.32 9.79 9.60401 10.013 8.92301C10.0402 8.81966 10.0925 8.72461 10.1653 8.64629C10.238 8.56797 10.3289 8.5088 10.43 8.47401C10.9439 8.29026 11.4509 8.08779 11.95 7.86701C12.0411 7.82631 12.1187 7.76041 12.1735 7.67707C12.2284 7.59373 12.2583 7.49643 12.2596 7.39667C12.261 7.2969 12.2338 7.19882 12.1812 7.11401C12.1287 7.0292 12.0529 6.96119 11.963 6.91801C11.535 6.71601 11.003 6.48101 10.427 6.27201C10.3251 6.23565 10.2331 6.17605 10.1583 6.09794C10.0835 6.01983 10.0279 5.92535 9.996 5.82201C9.753 5.07801 9.599 4.44801 9.341 3.79201C9.141 3.28201 8.612 3.29801 8.411 3.80801C8.154 4.46101 7.975 5.11001 7.768 5.81601Z" fill="url(#paint3_linear_51_5)"/>
<g filter="url(#filter2_i_51_5)">
<path d="M5.226 20.066C5.15 20.363 4.89 20.584 4.583 20.738C3.713 21.038 3.025 21.328 2.456 21.61C1.953 21.859 1.958 22.645 2.463 22.89C3.053 23.178 3.794 23.453 4.617 23.78C4.839 23.867 5.151 24.115 5.229 24.42C5.469 25.358 5.795 26.352 6.155 27.27C6.434 27.982 7.124 27.981 7.404 27.27C7.768 26.346 8.044 25.348 8.356 24.398C8.39392 24.2539 8.46677 24.1214 8.56811 24.0123C8.66945 23.9031 8.79616 23.8205 8.937 23.772C9.65376 23.5156 10.3609 23.2331 11.057 22.925C11.1837 22.868 11.2915 22.776 11.3677 22.6598C11.444 22.5437 11.4855 22.4082 11.4874 22.2692C11.4892 22.1303 11.4515 21.9937 11.3784 21.8755C11.3054 21.7573 11.2001 21.6625 11.075 21.602C10.3757 21.2687 9.66123 20.968 8.934 20.701C8.79188 20.6503 8.66355 20.5671 8.55922 20.4581C8.45489 20.3491 8.37743 20.2172 8.333 20.073C7.994 19.036 7.78 18.157 7.42 17.243C7.14 16.533 6.403 16.554 6.123 17.266C5.765 18.176 5.514 19.081 5.226 20.066Z" fill="url(#paint4_radial_51_5)"/>
</g>
<defs>
<filter id="filter0_iii_51_5" x="8.41485" y="3.40363" width="21.6063" height="25.1929" filterUnits="userSpaceOnUse" color-interpolation-filters="sRGB">
<feFlood flood-opacity="0" result="BackgroundImageFix"/>
<feBlend mode="normal" in="SourceGraphic" in2="BackgroundImageFix" result="shape"/>
<feColorMatrix in="SourceAlpha" type="matrix" values="0 0 0 0 0 0 0 0 0 0 0 0 0 0 0 0 0 0 127 0" result="hardAlpha"/>
<feOffset dx="0.25" dy="-0.25"/>
<feGaussianBlur stdDeviation="0.25"/>
<feComposite in2="hardAlpha" operator="arithmetic" k2="-1" k3="1"/>
<feColorMatrix type="matrix" values="0 0 0 0 0.937255 0 0 0 0 0.482353 0 0 0 0 0.329412 0 0 0 1 0"/>
<feBlend mode="normal" in2="shape" result="effect1_innerShadow_51_5"/>
<feColorMatrix in="SourceAlpha" type="matrix" values="0 0 0 0 0 0 0 0 0 0 0 0 0 0 0 0 0 0 127 0" result="hardAlpha"/>
<feOffset dx="0.25" dy="0.25"/>
<feGaussianBlur stdDeviation="0.5"/>
<feComposite in2="hardAlpha" operator="arithmetic" k2="-1" k3="1"/>
<feColorMatrix type="matrix" values="0 0 0 0 0.737255 0 0 0 0 0.615686 0 0 0 0 0.415686 0 0 0 1 0"/>
<feBlend mode="normal" in2="effect1_innerShadow_51_5" result="effect2_innerShadow_51_5"/>
<feColorMatrix in="SourceAlpha" type="matrix" values="0 0 0 0 0 0 0 0 0 0 0 0 0 0 0 0 0 0 127 0" result="hardAlpha"/>
<feOffset dx="-0.4" dy="0.25"/>
<feGaussianBlur stdDeviation="0.2"/>
<feComposite in2="hardAlpha" operator="arithmetic" k2="-1" k3="1"/>
<feColorMatrix type="matrix" values="0 0 0 0 1 0 0 0 0 0.901961 0 0 0 0 0.458824 0 0 0 1 0"/>
<feBlend mode="normal" in2="effect2_innerShadow_51_5" result="effect3_innerShadow_51_5"/>
</filter>
<filter id="filter1_ii_51_5" x="5.41299" y="3.41742" width="6.94667" height="8.04748" filterUnits="userSpaceOnUse" color-interpolation-filters="sRGB">
<feFlood flood-opacity="0" result="BackgroundImageFix"/>
<feBlend mode="normal" in="SourceGraphic" in2="BackgroundImageFix" result="shape"/>
<feColorMatrix in="SourceAlpha" type="matrix" values="0 0 0 0 0 0 0 0 0 0 0 0 0 0 0 0 0 0 127 0" result="hardAlpha"/>
<feOffset dx="0.1" dy="0.1"/>
<feGaussianBlur stdDeviation="0.1"/>
<feComposite in2="hardAlpha" operator="arithmetic" k2="-1" k3="1"/>
<feColorMatrix type="matrix" values="0 0 0 0 0.803922 0 0 0 0 0.6 0 0 0 0 0.262745 0 0 0 1 0"/>
<feBlend mode="normal" in2="shape" result="effect1_innerShadow_51_5"/>
<feColorMatrix in="SourceAlpha" type="matrix" values="0 0 0 0 0 0 0 0 0 0 0 0 0 0 0 0 0 0 127 0" result="hardAlpha"/>
<feOffset dx="-0.1" dy="0.1"/>
<feGaussianBlur stdDeviation="0.1"/>
<feComposite in2="hardAlpha" operator="arithmetic" k2="-1" k3="1"/>
<feColorMatrix type="matrix" values="0 0 0 0 1 0 0 0 0 0.882353 0 0 0 0 0.423529 0 0 0 1 0"/>
<feBlend mode="normal" in2="effect1_innerShadow_51_5" result="effect2_innerShadow_51_5"/>
</filter>
<filter id="filter2_i_51_5" x="2.08149" y="16.5711" width="9.55594" height="11.2325" filterUnits="userSpaceOnUse" color-interpolation-filters="sRGB">
<feFlood flood-opacity="0" result="BackgroundImageFix"/>
<feBlend mode="normal" in="SourceGraphic" in2="BackgroundImageFix" result="shape"/>
<feColorMatrix in="SourceAlpha" type="matrix" values="0 0 0 0 0 0 0 0 0 0 0 0 0 0 0 0 0 0 127 0" result="hardAlpha"/>
<feOffset dx="0.15" dy="-0.15"/>
<feGaussianBlur stdDeviation="0.15"/>
<feComposite in2="hardAlpha" operator="arithmetic" k2="-1" k3="1"/>
<feColorMatrix type="matrix" values="0 0 0 0 1 0 0 0 0 0.458824 0 0 0 0 0.462745 0 0 0 1 0"/>
<feBlend mode="normal" in2="shape" result="effect1_innerShadow_51_5"/>
</filter>
<linearGradient id="paint0_linear_51_5" x1="26.129" y1="11.271" x2="15.052" y2="22.931" gradientUnits="userSpaceOnUse">
<stop stop-color="#FFCF5A"/>
<stop offset="1" stop-color="#FEA254"/>
</linearGradient>
<linearGradient id="paint1_linear_51_5" x1="14.754" y1="29.29" x2="20.792" y2="16.554" gradientUnits="userSpaceOnUse">
<stop stop-color="#FF886D"/>
<stop offset="1" stop-color="#FF886D" stop-opacity="0"/>
</linearGradient>
<linearGradient id="paint2_linear_51_5" x1="11.086" y1="5.86901" x2="7.521" y2="9.62201" gradientUnits="userSpaceOnUse">
<stop stop-color="#FFDA72"/>
<stop offset="1" stop-color="#F7A967"/>
</linearGradient>
<linearGradient id="paint3_linear_51_5" x1="8.886" y1="11.98" x2="8.886" y2="7.85501" gradientUnits="userSpaceOnUse">
<stop stop-color="#FDA071"/>
<stop offset="1" stop-color="#FDA071" stop-opacity="0"/>
</linearGradient>
<radialGradient id="paint4_radial_51_5" cx="0" cy="0" r="1" gradientUnits="userSpaceOnUse" gradientTransform="translate(10.014 18.567) rotate(127.221) scale(7.07598 6.89067)">
<stop offset="0.365" stop-color="#FFBC64"/>
<stop offset="1" stop-color="#FF8F6B"/>
</radialGradient>
</defs>
</svg>
