<svg width="32" height="32" viewBox="0 0 32 32" fill="none" xmlns="http://www.w3.org/2000/svg">
<path d="M4 5.324C4 4.59333 4.59333 4 5.324 4H26.676C27.4067 4 28 4.59333 28 5.324V26.676C27.9996 27.027 27.86 27.3636 27.6118 27.6118C27.3636 27.86 27.027 27.9996 26.676 28H5.324C4.97285 28 4.63609 27.8605 4.38779 27.6122C4.13949 27.3639 4 27.0271 4 26.676V5.324ZM14.1627 11.22C14.0824 11.1665 13.9892 11.1357 13.8928 11.131C13.7965 11.1262 13.7006 11.1477 13.6155 11.1931C13.5304 11.2386 13.4592 11.3062 13.4095 11.3889C13.3599 11.4716 13.3335 11.5662 13.3333 11.6627V20.3373C13.3335 20.4338 13.3599 20.5284 13.4095 20.6111C13.4592 20.6938 13.5304 20.7614 13.6155 20.8069C13.7006 20.8523 13.7965 20.8738 13.8928 20.869C13.9892 20.8643 14.0824 20.8335 14.1627 20.78L20.668 16.444C20.7409 16.3951 20.8006 16.329 20.8419 16.2516C20.8832 16.1742 20.9048 16.0878 20.9048 16C20.9048 15.9122 20.8832 15.8258 20.8419 15.7484C20.8006 15.671 20.7409 15.6049 20.668 15.556L14.1627 11.22Z" fill="#111111"/>
</svg>
